<?xml version="1.0" encoding="UTF-8"?><svg id="Layer_2" xmlns="http://www.w3.org/2000/svg" viewBox="0 0 131.12 76.76"><defs><style>.cls-1{fill:#72994e;stroke-width:0px;}</style></defs><g id="Layer_1-2"><path class="cls-1" d="M.05,66.63c0-3.94,3.1-6.2,6.7-6.2,1.89,0,3.38.71,4.35,1.66l-1.31,1.74c-.93-.74-1.85-1.13-2.91-1.13-2.36,0-3.99,1.56-3.99,3.93s1.6,3.9,3.91,3.9c1.34,0,2.45-.6,3.36-1.3l1.16,1.77c-1.37,1.18-3.09,1.79-4.76,1.79-3.7,0-6.51-2.26-6.51-6.16Z"/><path class="cls-1" d="M13.49,66.63c0-3.94,2.81-6.2,5.92-6.2s5.92,2.26,5.92,6.2-2.81,6.16-5.92,6.16-5.92-2.26-5.92-6.16ZM22.48,66.63c0-2.37-1.15-3.93-3.08-3.93s-3.08,1.56-3.08,3.93,1.15,3.9,3.08,3.9,3.08-1.55,3.08-3.9Z"/><path class="cls-1" d="M28.1,60.72h2.27l.21,1.77h.1c1.13-1.14,2.45-2.06,4.25-2.06,2.72,0,3.95,1.74,3.95,4.77v7.3h-2.78v-6.94c0-1.89-.61-2.75-2.2-2.75-1.16,0-1.95.56-3.03,1.66v8.04h-2.78v-11.78h.01Z"/><path class="cls-1" d="M42.26,60.85l3.32-.13h7.15v2.2h-10.47v-2.07ZM45.5,60.08c0-2.78,1.54-4.81,5.02-4.81,1.26,0,2.43.26,3.48.65l-.57,2.05c-.85-.35-1.64-.51-2.6-.51-1.8,0-2.57.91-2.57,2.56v12.47h-2.76v-12.42h0Z"/><path class="cls-1" d="M59.58,65.83c0-4.57,2-8.25,5.22-10.93l1.54,1.29c-3.03,2.75-4.39,5.73-4.39,9.64s1.36,6.89,4.39,9.64l-1.54,1.29c-3.23-2.68-5.22-6.36-5.22-10.93Z"/><path class="cls-1" d="M68.97,70.9c4.77-4.12,7.65-6.75,7.65-9.12,0-1.61-.99-2.62-2.91-2.62-1.33,0-2.44.78-3.36,1.68l-1.53-1.52c1.49-1.5,3.01-2.37,5.26-2.37,3.14,0,5.19,1.86,5.19,4.69s-2.76,5.51-6.3,8.67c.92-.08,1.96-.15,2.81-.15h4.3v2.35h-11.12v-1.61h.01Z"/><path class="cls-1" d="M83.32,64.81c0-5.16,2.21-7.87,5.68-7.87s5.68,2.71,5.68,7.87-2.21,7.98-5.68,7.98-5.68-2.85-5.68-7.98ZM92.17,64.81c0-4.17-1.35-5.69-3.17-5.69s-3.17,1.52-3.17,5.69,1.35,5.8,3.17,5.8,3.17-1.63,3.17-5.8ZM87.35,64.7c0-1.05.74-1.71,1.65-1.71s1.65.66,1.65,1.71-.74,1.72-1.65,1.72-1.65-.66-1.65-1.72Z"/><path class="cls-1" d="M97.28,70.9c4.77-4.12,7.65-6.75,7.65-9.12,0-1.61-.99-2.62-2.91-2.62-1.33,0-2.44.78-3.36,1.68l-1.53-1.52c1.49-1.5,3.01-2.37,5.26-2.37,3.14,0,5.19,1.86,5.19,4.69s-2.76,5.51-6.3,8.67c.92-.08,1.96-.15,2.81-.15h4.3v2.35h-11.12v-1.61h.01Z"/><path class="cls-1" d="M118.13,62.81c.02-.91.08-2.13.13-3.04h-.11c-.5.81-1.09,1.61-1.61,2.42l-3.19,4.23h9.53v2.16h-12.35v-1.89l6.99-9.46h3.22v15.27h-2.59v-9.7h-.02Z"/><path class="cls-1" d="M124.13,75.47c3.03-2.75,4.39-5.73,4.39-9.64s-1.36-6.89-4.39-9.64l1.54-1.29c3.23,2.68,5.22,6.36,5.22,10.93s-2,8.25-5.22,10.93l-1.54-1.29Z"/><path class="cls-1" d="M46.9,11.79c9.21,0,15.7,6.27,15.7,14.98s-6.49,14.92-15.7,14.92-15.59-6.27-15.59-14.92,6.38-14.98,15.59-14.98M46.9,34.2c4.38,0,7.38-2.77,7.38-7.43s-3.33-7.49-7.38-7.49-7.27,2.72-7.27,7.49c0,4.22,2.94,7.43,7.27,7.43"/><path class="cls-1" d="M97.99,0C100.6,0,102.48,1.87,102.48,4.33c0,2.59-1.89,4.45-4.49,4.45-2.83,0-4.55-1.87-4.55-4.45s1.89-4.33,4.55-4.33M93.94,12.34h8.04v28.85h-8.04V12.34Z"/><path class="cls-1" d="M105.61,12.34h5.49v-6.71h8.04v6.71h8.69v7.49h-8.69v9.38c0,3.5.78,4.83,2.94,4.83,1.89,0,3.38-.67,4.94-1.89l4.1,5.08c-2,2.11-5.87,4.3-9.81,4.3-6.05,0-10.21-3.27-10.21-9.93v-11.76h-5.49v-7.49h0Z"/><path class="cls-1" d="M89.77,15.87c-1.97-1.89-6.06-4.34-11.87-4.34-8.27,0-13.14,3.42-13.14,9.03,0,8.7,13.86,8.92,17.14,10.84.59.33.94.79.73,1.46-.62,1.93-8.39,2.87-14.12-2.67l-4.68,5.57c2.08,2.76,6.67,5.99,14.12,5.99,6.92,0,12.9-2.8,12.9-9.2,0-5.73-5.34-8.04-10.09-9.39-1.35-.37-2.66-.68-3.79-.98-1.87-.48-4.38-1.02-3.98-2.41.73-2.54,9.07-.95,11.99,1.72l4.77-5.63h.02Z"/><path class="cls-1" d="M0,12.4h8.06v1.5c1.5-1.39,4.22-2.11,6.45-2.11,8.78,0,14.23,6.06,14.23,14.62s-5.67,15.34-14.45,15.34c-2.78,0-5.33-.44-6.22-1.44v12.11H0V12.4h0ZM8.05,22.57v9.22c.89,1.33,2.83,2.45,5.11,2.45,4.5,0,7.22-2.83,7.22-7.22,0-5.11-2.56-7.72-6.78-7.72-2.67,0-4.5,1.33-5.56,3.28"/></g></svg>